# xmcd
#
# Track frame offsets:
#	150
#	14398
#	32610
#	56712
#	72789
#	89650
#	106212
#	124288
#	137509
#	154513
#	168761
#	186973
#	211075
#	227152
#	244013
#	260575
#	278651
#	291872
#
# Disc length: 4118 seconds
#
# Revision: 2
# Processed by: cddbd v1.5.2PL0 Copyright (c) Steve Scherf et al.
# Submitted via: audiograbber 1.83.01
#
DISCID=fa101412
DTITLE=Pop Hits Monthly Nashville - PHN0303
DYEAR=2003
DGENRE=Karaoke
TTITLE0=Twain, Shania - Up!
TTITLE1=Bates, Jeff - Love Song
TTITLE2=Dixie Chicks - Travellin' Soldier
TTITLE3=Jackson, Alan - That'd Be Alright
TTITLE4=Tippin, Aarn and Thea - Love Like There's No Tomorrow
TTITLE5=Andrews, Jessica - There's More To Me Than You
TTITLE6=Urban, Keith - Raining On Sunday
TTITLE7=Cochran, Tammy - Love Won't Let Me
TTITLE8=Montgomery Gentry - Speed
TTITLE9=Twain, Shania - Up ! (vocal)
TTITLE10=Bates, Jeff - Love Son (vocal)
TTITLE11=Dixie Chicks - Travelin' Soldier (vocal)
TTITLE12=Jackson, Alan - That'd Be Alright (vocal)
TTITLE13=Tippin, Aarn and Thea - Love Like There's No Tomorrow (vocal) 
TTITLE14=Andrews, Jessica - There's More To Me Than You (vocal)
TTITLE15=Urban, Keith - Rainig On Sunday (vocal)
TTITLE16=Cochran, Tammy - Love Won't Let Me (vocal)
TTITLE17=Montgomery Gentry - Speed (vocal)
EXTD=fixed it all !!
EXTT0=
EXTT1=
EXTT2=
EXTT3=
EXTT4=
EXTT5=
EXTT6=
EXTT7=
EXTT8=
EXTT9=
EXTT10=
EXTT11=
EXTT12=
EXTT13=
EXTT14=
EXTT15=
EXTT16=
EXTT17=
PLAYORDER=
